# xmcd
#
# Track frame offsets: 
#        150
#        16157
#        30015
#        43098
#        48360
#        63035
#        76752
#        89202
#        104620
#        118475
#        132963
#        148375
#        161280
#        176655
#        186315
#        195880
#        211943
#        228475
#
# Disc length: 3251 seconds
#
# Revision: 1
# Processed by: cddbd v1.5.2PL0 Copyright (c) Steve Scherf et al.
# Submitted via: ExactAudioCopyFreeDBPlugin 1.0
#
DISCID=f30cb112
DTITLE=Verschiedene - Milestones Of Legends - Delta Blues - CD10 - Mud
DTITLE=dy Waters
DYEAR=2018
DGENRE=Blues
TTITLE0=Muddy Waters - Country Blues
TTITLE1=Muddy Waters - I Be's Troubled
TTITLE2=Muddy Waters - Burr Clover Farm Blues
TTITLE3=Muddy Waters - Ramblin' Kid Blues (Partial)
TTITLE4=Muddy Waters - Ramblin' Kid Blues
TTITLE5=Muddy Waters - Rosalie
TTITLE6=Muddy Waters - Joe Turner
TTITLE7=Muddy Waters - Pearlie May Blues
TTITLE8=Muddy Waters - Take a Walk with Me
TTITLE9=Muddy Waters - Burr Clover Blues
TTITLE10=Muddy Waters - I Be Bound to Write to You (First Version)
TTITLE11=Muddy Waters - I Be Bound to Write to You (Second Version)
TTITLE12=Muddy Waters - You're Gonna Miss Me When I'm Gone (Number One
TTITLE12=)
TTITLE13=Muddy Waters - You Got to Take Sick and Die Some of These Day
TTITLE13=s
TTITLE14=Muddy Waters - Why Don't You Live so God Can Use You
TTITLE15=Muddy Waters - Country Blues
TTITLE16=Muddy Waters - You're Gonna Miss Me When I'm Gone (Number Two
TTITLE16=)
TTITLE17=Muddy Waters - 32-20 Blues
EXTD=
EXTT0=
EXTT1=
EXTT2=
EXTT3=
EXTT4=
EXTT5=
EXTT6=
EXTT7=
EXTT8=
EXTT9=
EXTT10=
EXTT11=
EXTT12=
EXTT13=
EXTT14=
EXTT15=
EXTT16=
EXTT17=
PLAYORDER=
